<?xml version="1.0" encoding="UTF-8"?>
<svg version="1.1" xmlns="http://www.w3.org/2000/svg" width="2874" height="1110">
<path d="M0 0 C134.31 0 268.62 0 407 0 C410.3 6.27 413.6 12.54 417 19 C419.72161629 22.87980118 419.72161629 22.87980118 422.49821472 26.83798218 C445.71752211 60.86453971 440.73413012 103.09090436 440.17430275 142.37885574 C440.02175493 153.38027076 439.99242953 164.38111494 439.96858337 175.38343732 C439.92294071 194.99404974 439.78407275 214.60279837 439.58422852 234.21240234 C439.39063024 253.22923647 439.24239986 272.24555925 439.15356445 291.26318359 C439.14528866 293.02986837 439.14528866 293.02986837 439.13684569 294.83224376 C439.10943429 300.74253432 439.08289777 306.65282842 439.05679572 312.5631249 C438.84009082 361.37670252 438.47110555 410.18825909 438 459 C435.15014101 457.57507051 434.96626522 455.50954732 433.98823869 452.62410891 C433.73337084 451.8469875 433.47850299 451.0698661 433.21591187 450.26919556 C432.94060501 449.4496638 432.66529815 448.63013205 432.38164866 447.78576601 C431.45477616 445.02049069 430.53873405 442.25174632 429.62255859 439.48291016 C428.96280532 437.50714872 428.30240503 435.53160323 427.6414032 433.55625916 C425.84333274 428.17634652 424.05471624 422.79333336 422.26796293 417.40965319 C420.40031341 411.7866616 418.52490859 406.16625737 416.65054321 400.54550171 C413.50306528 391.10301427 410.36151767 381.65857002 407.22363281 372.21289062 C403.59193717 361.28092062 399.95182295 350.35178299 396.30696809 339.42419398 C392.80646408 328.92898028 389.3110731 318.43207124 385.81831741 307.93427658 C384.32940306 303.45934288 382.83883984 298.9849634 381.34699631 294.5110054 C379.59124532 289.24462929 377.84001326 283.97677188 376.09230995 278.7077198 C375.44885218 276.77016415 374.80385488 274.83311901 374.1572361 272.89661598 C373.27736455 270.26069596 372.40302123 267.62300698 371.53012085 264.98477173 C371.27079155 264.21211177 371.01146226 263.4394518 370.7442745 262.6433779 C369.75725209 259.64380561 369 257.18007403 369 254 C368.4470224 253.82476807 367.8940448 253.64953613 367.3243103 253.46899414 C361.96146461 251.73128292 356.81146124 249.72994556 351.6640625 247.4375 C350.88433075 247.09416626 350.104599 246.75083252 349.30123901 246.39709473 C346.74078976 245.26854459 344.18290895 244.1342946 341.625 243 C339.80289378 242.19560236 337.98062482 241.39157328 336.15820312 240.58789062 C331.38661222 238.48247479 326.61715451 236.37227211 321.8482666 234.26074219 C317.29308337 232.24445914 312.73636397 230.23165557 308.1796875 228.21875 C302.8175008 225.84979491 297.45547143 223.48048743 292.09423828 221.109375 C279.90503396 215.71926806 267.70571548 210.35260247 255.5 205 C240.58594461 198.45970256 225.68532801 191.88957981 210.79199219 185.30224609 C197.70380756 179.51387718 184.60618592 173.74748798 171.5 168 C156.59434214 161.46338515 141.7020007 154.89721761 126.81716919 148.31332397 C110.74850055 141.20640526 94.66416761 134.13561135 78.57096863 127.08442688 C76.25110601 126.06668971 73.93276951 125.04553416 71.61450195 124.02416992 C68.42232645 122.61907341 65.22193403 121.23482681 62.01635742 119.8605957 C60.39889183 119.15974633 58.78145905 118.45882119 57.1640625 117.7578125 C56.4250621 117.44544144 55.68606171 117.13307037 54.92466736 116.81123352 C48.47808614 113.99966937 43.8358248 110.09080465 39 105 C38.27039062 104.32582031 37.54078125 103.65164062 36.7890625 102.95703125 C21.44473789 88.60874175 10.09116616 69.01114804 4 49 C3.78972168 48.31728027 3.57944336 47.63456055 3.36279297 46.93115234 C-1.27054505 31.10149791 0 16.99185229 0 0 Z " fill="#FDFDFD" transform="translate(0,91)"/>
<path d="M0 0 C134.31 0 268.62 0 407 0 C412.43484424 27.17422119 403.63005739 57.79243108 388.6875 80.6171875 C384.47957774 86.7882949 379.80650754 92.600306 375 98.3125 C374.55043945 98.85084473 374.10087891 99.38918945 373.63769531 99.94384766 C372.13893358 101.67939476 370.58425876 103.34208098 369 105 C368.35538818 105.70125 367.71077637 106.4025 367.04663086 107.125 C359.40439161 114.76806144 350.36914998 118.29513417 340.5625 122.375 C338.74385769 123.14950326 336.9261676 123.92624579 335.109375 124.70507812 C331.31576729 126.33000614 327.51868519 127.94639388 323.71923828 129.55761719 C315.49909914 133.05485887 307.33821736 136.68522019 299.17477417 140.31231689 C294.68145981 142.30748853 290.18448161 144.29436107 285.6875 146.28125 C284.79868637 146.67406158 283.90987274 147.06687317 282.99412537 147.47158813 C272.6570464 152.03820038 262.3074266 156.57618999 251.95800781 161.11474609 C238.79545609 166.88757348 225.64449389 172.6861804 212.5 178.5 C197.6631739 185.06233942 182.81546846 191.59926729 167.95800781 198.11474609 C153.89690991 204.28165755 139.84976123 210.47966586 125.80810547 216.69070435 C110.07439381 223.64961236 94.3351398 230.59669462 78.56398487 237.4704361 C77.00490757 238.15722176 75.45036041 238.85447324 73.90254498 239.56627655 C69.16586626 241.72180325 64.44304778 243.54319531 59.49104309 245.14782715 C45.28570253 249.94823091 45.28570253 249.94823091 35.16940308 260.41822815 C32.05939636 267.00802673 30.09114131 273.91804933 28.10546875 280.91015625 C27.30175457 283.4872747 26.46616669 286.05374759 25.63142395 288.62095642 C23.68010175 294.68286271 21.83647517 300.77188583 20.03176814 306.87883991 C18.02176075 313.66312804 15.89878108 320.40994837 13.76239586 327.15531218 C10.25209078 338.24466991 6.81854379 349.35561393 3.43945312 360.4855957 C-0.4684101 373.34468478 -4.52483907 386.14952194 -8.70703125 398.921875 C-9.13816884 400.23921694 -9.13816884 400.23921694 -9.57801628 401.58317184 C-13.91516777 414.81694432 -18.33184321 428.02294159 -22.875 441.1875 C-23.48598869 442.9666899 -24.09666316 444.74598773 -24.70703125 446.52539062 C-26.13449349 450.68481566 -27.5658706 454.84286929 -29 459 C-29.33 459 -29.66 459 -30 459 C-30.69068651 409.19218948 -31.2172995 359.38487358 -31.53195988 309.57319392 C-31.56946916 303.65702385 -31.60829998 297.74086313 -31.64794922 291.82470703 C-31.65581853 290.64719036 -31.66368784 289.46967369 -31.67179562 288.2564747 C-31.80139667 269.33243297 -32.03738639 250.41120005 -32.31458388 231.48880997 C-32.59779753 211.98920241 -32.76231323 192.4910377 -32.82265484 172.9894588 C-32.86328505 161.00947614 -32.99021152 149.03743504 -33.23749401 137.05990711 C-33.39941079 128.7818902 -33.44328863 120.50781114 -33.40504132 112.22833595 C-33.38325421 106.71703547 -33.44199378 101.22570888 -33.67284536 95.7188226 C-34.47021927 56.58970963 -19.20951973 38.41903947 0 0 Z " fill="#FDFDFD" transform="translate(610,91)"/>
<path d="M0 0 C21.45 0 42.9 0 65 0 C66.77759018 4.44397546 67.98987281 8.73452774 69.06298828 13.37036133 C69.35603348 14.61503677 69.35603348 14.61503677 69.65499878 15.88485718 C70.29714154 18.61639414 70.93375309 21.34918825 71.5703125 24.08203125 C72.01551819 25.98068602 72.46106947 27.87925978 72.9069519 29.77775574 C74.07761094 34.76639796 75.2435783 39.75612529 76.40856934 44.74609375 C77.59897291 49.84115896 78.79381405 54.93518309 79.98828125 60.02929688 C82.32986339 70.01851905 84.66607871 80.00898513 87 90 C101.85 90.495 101.85 90.495 117 91 C114.76742698 97.69771906 114.76742698 97.69771906 112.32579994 100.9809742 C80.936918 144.96240188 84.67001198 192.37374186 85.8049769 244.21643876 C86.07444772 256.9250862 86.15795399 269.63333651 86.2292269 282.34439923 C86.3597723 305.20967886 86.59157371 328.07219085 86.90917969 350.93554688 C86.91859175 351.61537922 86.92800382 352.29521156 86.93770109 352.99564488 C87.07085931 362.60655605 87.20777191 372.21741246 87.34564602 381.82825696 C87.94681503 423.74552464 88.47586009 465.66144417 88.69035828 507.58292353 C88.71093489 511.49169236 88.73415629 515.40043935 88.75763607 519.3091917 C89.23575841 603.40869466 82.87481516 683.77061946 66.41946729 766.2250842 C62.61458749 785.32014895 60.1348616 803.91270628 60.02999687 823.3935585 C59.98772573 828.47570218 59.77757908 833.54614433 59.57353973 838.62395477 C59.38997349 843.27432359 59.25095585 847.92571346 59.10943604 852.57751465 C57.70564201 898.0829893 57.70564201 898.0829893 56 920 C55.94604065 920.69871216 55.8920813 921.39742432 55.83648682 922.11730957 C53.80361114 947.96147335 49.62160329 973.37010512 45.12109375 998.88671875 C41.12950111 1021.29713756 41.12950111 1021.29713756 38.9375 1043.9375 C38.86080078 1045.17749756 38.78410156 1046.41749512 38.70507812 1047.69506836 C38.31297141 1054.14769447 37.96540568 1060.60236553 37.629776 1067.05815125 C37.5039813 1069.4751206 37.37620375 1071.89197981 37.24829102 1074.30883789 C37.08495694 1077.39880687 36.93158199 1080.48903346 36.78491211 1083.57983398 C35.88814694 1101.5885605 35.88814694 1101.5885605 34 1109 C33.34 1109.33 32.68 1109.66 32 1110 C30.29467835 1103.12897486 29.47508453 1096.4934447 29 1089.4375 C28.91516357 1088.28185547 28.83032715 1087.12621094 28.74291992 1085.93554688 C28.25123111 1078.9064551 27.90660684 1071.88915495 27.67578125 1064.84765625 C26.8709619 1041.55311618 24.03196491 1019.13875765 19.92578125 996.20507812 C18.45957905 988.00336622 17.09355248 979.78508852 15.75 971.5625 C15.56232056 970.41559189 15.56232056 970.41559189 15.37084961 969.24551392 C9.32445042 932.0855997 7.7746335 894.62597554 6.5 857.0625 C6.29431091 851.0053746 6.08508724 844.94840423 5.86842346 838.89166069 C5.78599823 836.54532061 5.70909764 834.19885244 5.63269043 831.85231018 C5.49771333 827.89676117 5.32540822 823.94389332 5.13976836 819.99042541 C5.04343693 817.92935831 4.95107076 815.86810335 4.8619616 813.80671138 C4.07051292 796.39488102 1.98909252 779.8623436 -1.6519618 762.80322409 C-18.69461164 681.60764823 -23.10020822 601.6062975 -22.53415024 518.77121699 C-22.50780567 514.85054586 -22.48430387 510.9298669 -22.46155453 507.00917339 C-22.19984665 462.75379546 -21.60963621 418.50352678 -20.93813384 374.252794 C-20.83353196 367.35930241 -20.73033503 360.46579018 -20.62792969 353.57226562 C-20.61777522 352.89086356 -20.60762074 352.2094615 -20.59715856 351.50741089 C-20.36454619 335.8645445 -20.15896469 320.22200345 -20.04102898 304.57781029 C-20.03603682 303.9164747 -20.03104465 303.25513912 -20.02590122 302.57376306 C-19.97182081 295.31152078 -19.92528298 288.04925715 -19.88440025 280.78692949 C-19.80811638 268.09341392 -19.67195363 255.40645556 -19.37646866 242.71599197 C-18.09751141 187.01101622 -17.74509433 140.61127924 -50.87659252 93.68705976 C-52 92 -52 92 -52 91 C-41.77 91 -31.54 91 -21 91 C-20.34 87.37 -19.68 83.74 -19 80 C-18.40002222 77.23550043 -17.78631041 74.48270364 -17.13647461 71.73046875 C-16.96222458 70.9826564 -16.78797455 70.23484406 -16.60844421 69.46437073 C-16.04237742 67.03812286 -15.47246587 64.61279784 -14.90234375 62.1875 C-14.50383704 60.48409541 -14.10553016 58.78064405 -13.70741272 57.07714844 C-12.87783253 53.53003947 -12.04644376 49.98336122 -11.21362305 46.43701172 C-10.14596463 41.89038123 -9.08198877 37.34289884 -8.01923275 32.79512024 C-7.19938748 29.28792026 -6.37807951 25.78106418 -5.55627632 22.27432251 C-5.16320842 20.59665003 -4.77048949 18.91889575 -4.37812614 17.24105835 C-3.83154784 14.90516129 -3.28311291 12.56970813 -2.73413086 10.234375 C-2.57255493 9.54243546 -2.410979 8.85049591 -2.24450684 8.1375885 C-1.59360138 5.37612041 -0.8979082 2.69372461 0 0 Z M24 594 C15.3930871 606.61860959 12.87378951 624.15232535 11 639 C10.85643066 640.09924805 10.85643066 640.09924805 10.70996094 641.22070312 C9.58783239 651.34801385 9.75610546 661.57416811 9.75 671.75 C9.74932526 672.75722107 9.74865051 673.76444214 9.74795532 674.80218506 C9.77511479 700.29096179 10.06579646 733.15790334 27 754 C30.84120976 756.56080651 32.44643748 756.75892709 37 756 C50.80024339 745.72322301 53.0054059 722.66528736 55.38671875 706.80078125 C56.90746069 695.5119248 57.23982121 684.24964625 57.25 672.875 C57.25100708 672.08886322 57.25201416 671.30272644 57.25305176 670.49276733 C57.25484628 627.46342003 57.25484628 627.46342003 39 590 C32.55381594 585.70254396 28.60674331 588.74576512 24 594 Z " fill="#FDFDFD" transform="translate(476,0)"/>
<path d="M0 0 C1.52279572 -0.002062 1.52279572 -0.002062 3.07635498 -0.00416565 C4.1840625 -0.00057037 5.29177002 0.0030249 6.43304443 0.00672913 C7.60405701 0.0065831 8.77506958 0.00643707 9.98156738 0.00628662 C13.85571133 0.0069838 17.72980731 0.01476714 21.60394287 0.02259827 C24.28865533 0.02501831 26.97336773 0.0259359 29.65808105 0.02688599 C36.00449746 0.02999318 42.35089662 0.03819832 48.69730544 0.04823548 C55.92337682 0.05941561 63.14944903 0.06491186 70.37552691 0.06993091 C85.23813466 0.08038144 100.10072154 0.09871932 114.96331787 0.12025452 C114.96331787 13.65025452 114.96331787 27.18025452 114.96331787 41.12025452 C111.77844727 41.13483704 108.59357666 41.14941956 105.31219482 41.16444397 C94.79480756 41.21475854 84.27756884 41.28134814 73.76032734 41.35596943 C67.38309808 41.40071581 61.00593333 41.4399627 54.62860107 41.46669006 C48.47526605 41.49268018 42.32217874 41.53305258 36.16899681 41.58344078 C33.82027452 41.60013848 31.47150935 41.61163463 29.12273598 41.61786842 C25.8353637 41.6274777 22.54862937 41.65549999 19.26141357 41.68788147 C18.28821167 41.68644638 17.31500977 41.68501129 16.31231689 41.68353271 C11.38717414 41.75223985 7.94471007 41.88373346 3.96331787 45.12025452 C-0.16389853 49.83707326 -0.37800272 54.26174839 -0.32183838 60.31947327 C0.11014024 64.56233179 1.37439864 66.74027663 3.96331787 70.12025452 C6.87131525 71.94678292 9.1002169 72.37473972 12.50646973 72.39872742 C13.41228287 72.4098909 14.31809601 72.42105438 15.25135803 72.43255615 C16.23750595 72.43471634 17.22365387 72.43687653 18.23968506 72.43910217 C19.28390121 72.4491478 20.32811737 72.45919342 21.40397644 72.46954346 C24.85604298 72.50043829 28.30803173 72.5174283 31.76019287 72.53431702 C34.15344922 72.55302357 36.54669894 72.5725966 38.93994141 72.59300232 C45.239625 72.64438353 51.53932998 72.68397731 57.83911133 72.72114563 C64.26728637 72.76114766 70.69537194 72.81225735 77.12347412 72.86244202 C89.73669885 72.95927232 102.34996032 73.04262803 114.96331787 73.12025452 C114.96331787 87.31025452 114.96331787 101.50025452 114.96331787 116.12025452 C111.68756836 116.11912659 108.41181885 116.11799866 105.0368042 116.11683655 C94.22002695 116.11746376 83.40353096 116.15089986 72.58687305 116.20053291 C66.02793187 116.22961901 59.46934902 116.24761416 52.91033936 116.2403717 C46.5817887 116.23378995 40.25394683 116.25619915 33.92554283 116.29880905 C31.5098288 116.30996065 29.09404306 116.31062208 26.67832375 116.30067825 C23.29702847 116.28854246 19.91790882 116.31352274 16.5368042 116.3473053 C15.53555008 116.33508438 14.53429596 116.32286346 13.50270081 116.31027222 C8.55777651 116.3131438 8.55777651 116.3131438 4.23679161 118.40192795 C-0.29742507 123.6213896 -0.3229362 128.59335146 -0.25152588 135.17103577 C0.101172 140.01261581 1.68927582 142.74357203 4.92723083 146.24238586 C9.35277782 148.97965784 13.243179 148.69231473 18.35321045 148.66615295 C19.39757263 148.67649063 20.44193481 148.68682831 21.51794434 148.69747925 C24.96473601 148.72694144 28.41094133 148.7284072 31.85784912 148.72962952 C34.24968081 148.74460878 36.64150215 148.76133539 39.03330994 148.77973938 C45.32480338 148.82345313 51.61615728 148.8434211 57.90777588 148.85847473 C64.32936874 148.87803113 70.75081059 148.92000286 77.17230225 148.96009827 C89.76928648 149.03544432 102.36616145 149.08363763 114.96331787 149.12025452 C114.96331787 162.98025452 114.96331787 176.84025452 114.96331787 191.12025452 C99.67219019 191.21081907 84.38118483 191.2843895 69.08985615 191.3275032 C61.98857785 191.34806066 54.88747898 191.37604931 47.78631592 191.42201233 C41.59133927 191.46209058 35.39649268 191.48773677 29.20138997 191.4966085 C25.92611662 191.50178815 22.65129823 191.51596971 19.37612343 191.54317474 C15.70485505 191.57244206 12.03434334 191.57620067 8.36297607 191.57435608 C7.29697678 191.58873718 6.23097748 191.60311829 5.13267517 191.61793518 C-8.39929705 191.54492599 -19.13464306 187.18973125 -29.14996338 178.22962952 C-41.37979305 165.78607467 -45.91046589 149.12305146 -46.41168213 132.12025452 C-46.12271136 121.93692448 -45.00492075 112.29975654 -39.96417236 103.37220764 C-38.21481498 100.25250001 -36.99289587 97.60520537 -36.03668213 94.12025452 C-37.14977212 90.23748357 -38.94091348 87.12796354 -41.03277588 83.72181702 C-48.60714851 71.10831004 -47.15901259 52.86549035 -44.14605713 39.12416077 C-40.45956924 24.55123404 -31.77609804 12.89491835 -19.03668213 5.12025452 C-12.83496015 2.11046776 -6.92530396 -0.00724404 0 0 Z " fill="#FDFDFD" transform="translate(1038.0366821289063,574.8797454833984)"/>
<path d="M0 0 C1.17218079 -0.00058411 2.34436157 -0.00116821 3.55206299 -0.00177002 C7.38300367 0.00099156 11.21314246 0.03199332 15.04394531 0.06347656 C17.7172375 0.07094582 20.39048667 0.07683253 23.06378174 0.08062744 C29.35339331 0.09299339 35.64272231 0.12572701 41.93221021 0.1660254 C49.10038938 0.21094363 56.26858301 0.2327802 63.43686819 0.25280714 C78.16543241 0.29446658 92.89369418 0.36773761 107.62207031 0.45410156 C107.62207031 13.98410156 107.62207031 27.51410156 107.62207031 41.45410156 C104.43719971 41.4739209 101.2523291 41.49374023 97.97094727 41.51416016 C87.45358662 41.58103699 76.93632532 41.65867702 66.41907978 41.74162865 C60.04185987 41.79159576 53.66465655 41.83792595 47.28735352 41.87597656 C41.13406635 41.91282384 34.98091791 41.95918263 28.82774925 42.01216507 C26.47902037 42.03071191 24.13026175 42.04581879 21.78148842 42.05744553 C18.49423612 42.07430271 15.20730176 42.10333717 11.92016602 42.13525391 C10.94696411 42.13741409 9.97376221 42.13957428 8.97106934 42.14179993 C2.54812905 42.16960456 2.54812905 42.16960456 -3.37792969 44.45410156 C-4.65380464 46.76814026 -4.65380464 46.76814026 -5.37792969 49.45410156 C-5.74917969 50.23785156 -6.12042969 51.02160156 -6.50292969 51.82910156 C-8.4911659 57.79381021 -7.3860022 62.21526922 -4.74121094 67.65722656 C-2.81700451 70.19342987 -1.30553488 71.09989592 1.62207031 72.45410156 C5.05274446 72.91009329 8.46314671 72.89157235 11.92016602 72.88647461 C12.95477463 72.89666626 13.98938324 72.90685791 15.05534363 72.9173584 C18.46956785 72.94751358 21.88351161 72.95675843 25.29785156 72.96582031 C27.66726109 72.98266508 30.03666167 73.00081504 32.40605164 73.0202179 C38.63832809 73.06774571 44.87056826 73.09753728 51.10296631 73.12365723 C57.4642249 73.15344855 63.82535847 73.19998384 70.18652344 73.24511719 C82.6649881 73.33118218 95.14343962 73.39696584 107.62207031 73.45410156 C107.62207031 87.64410156 107.62207031 101.83410156 107.62207031 116.45410156 C102.70059082 116.46026489 102.70059082 116.46026489 97.6796875 116.46655273 C86.85093538 116.48373417 76.02242004 116.52820896 65.19381332 116.58619213 C58.62704634 116.62051304 52.06051327 116.6455801 45.49365234 116.6496582 C39.15867665 116.65393011 32.82422909 116.68230157 26.48941803 116.72753334 C24.070092 116.74054371 21.65070287 116.74480359 19.23134613 116.74025536 C15.84765781 116.73537479 12.46552824 116.76133111 9.08203125 116.79467773 C7.57475716 116.78173927 7.57475716 116.78173927 6.03703308 116.76853943 C0.50882437 116.78175781 0.50882437 116.78175781 -3.95355225 119.78437805 C-6.83840962 125.19149229 -8.00917554 130.35205834 -7.37792969 136.45410156 C-6.0907663 140.61477025 -4.8627698 144.23128451 -1.43635559 147.05305481 C3.0066886 149.08838698 7.08606507 148.893603 11.92016602 148.88647461 C12.95477463 148.89666626 13.98938324 148.90685791 15.05534363 148.9173584 C18.46956785 148.94751358 21.88351161 148.95675843 25.29785156 148.96582031 C27.66726109 148.98266508 30.03666167 149.00081504 32.40605164 149.0202179 C38.63832809 149.06774571 44.87056826 149.09753728 51.10296631 149.12365723 C57.4642249 149.15344855 63.82535847 149.19998384 70.18652344 149.24511719 C82.6649881 149.33118218 95.14343962 149.39696584 107.62207031 149.45410156 C107.62207031 163.31410156 107.62207031 177.17410156 107.62207031 191.45410156 C92.46132666 191.54466962 77.30070642 191.61823855 62.13976002 191.66135025 C55.09901502 191.68190684 48.05845102 191.70989378 41.01782227 191.75585938 C34.21618131 191.80024324 27.41472802 191.82327673 20.61295128 191.83361053 C18.02516417 191.84096971 15.43738668 191.85534005 12.84967995 191.87702179 C-6.58082892 192.03326864 -21.73658021 191.58166636 -36.56542969 177.70410156 C-50.06343026 163.58889619 -53.02619411 145.79091527 -52.69433594 127.02441406 C-52.26400231 116.48394107 -49.74995065 106.59823815 -44.13574219 97.56738281 C-43.13070014 95.41876462 -43.13070014 95.41876462 -44.08886719 93.04394531 C-44.72695312 91.76197266 -44.72695312 91.76197266 -45.37792969 90.45410156 C-46.21282833 88.53811622 -47.04608038 86.62141277 -47.87792969 84.70410156 C-48.30074219 83.73988281 -48.72355469 82.77566406 -49.15917969 81.78222656 C-55.20032805 65.28524451 -54.24500138 45.01976711 -47.12084961 29.08691406 C-41.13918991 16.54141343 -32.04152713 7.00216778 -18.85858154 2.31842041 C-12.46637589 0.25647004 -6.6754265 -0.08897578 0 0 Z " fill="#FDFDFD" transform="translate(2766.3779296875,574.5458984375)"/>
<path d="M0 0 C15.53461905 -0.11323624 31.06903109 -0.205186 46.60395241 -0.25906086 C53.81847626 -0.28475025 61.03272387 -0.31972106 68.24707031 -0.37719727 C74.54130677 -0.42731875 80.835343 -0.4593582 87.1297735 -0.47044247 C90.4572475 -0.47691348 93.78369906 -0.49461874 97.11107254 -0.52865028 C130.52218735 -0.85659083 130.52218735 -0.85659083 144 12 C144.61230469 12.57234375 145.22460938 13.1446875 145.85546875 13.734375 C158.1325734 26.4180063 161.50592547 43.24674847 161.34960938 60.26416016 C160.9191549 76.39747772 155.83878992 91.0555233 144.44921875 102.8125 C131.44363269 114.42833444 117.62173276 115.85426187 100.9375 116.5625 C99.97650391 116.60568359 99.01550781 116.64886719 98.02539062 116.69335938 C95.68369723 116.79821132 93.34192071 116.90037788 91 117 C91.65129379 117.24754532 92.30258759 117.49509064 92.97361755 117.75013733 C99.19413988 120.11492849 105.41378563 122.48200979 111.63252163 124.85149479 C114.82755435 126.06879031 118.02288802 127.28528113 121.21899414 128.49975586 C124.91636282 129.90520535 128.61257078 131.3136722 132.30859375 132.72265625 C133.98156776 133.3574868 133.98156776 133.3574868 135.68833923 134.00514221 C144.86924482 137.51025792 153.90273387 141.25406689 163 145 C163 160.18 163 175.36 163 191 C158.78659089 190.29776515 155.97354039 189.76298109 152.19042969 188.23193359 C150.81711739 187.68149384 150.81711739 187.68149384 149.4160614 187.11993408 C147.93393913 186.51529327 147.93393913 186.51529327 146.421875 185.8984375 C144.83757439 185.2609256 144.83757439 185.2609256 143.2212677 184.61053467 C139.72866998 183.20401921 136.23941856 181.78938192 132.75 180.375 C128.43580058 178.6355191 124.12037087 176.8991 119.80491829 175.16273117 C117.86885795 174.38343574 115.933112 173.60336362 113.99742126 172.82315063 C99.85682836 167.12572365 85.68461669 161.50837365 71.51002502 155.89618683 C68.2854453 154.61930803 65.06119576 153.34159598 61.83691406 152.06396484 C55.89169424 149.70825146 49.94584112 147.35414705 44 145 C43.67 160.18 43.34 175.36 43 191 C28.81 191 14.62 191 0 191 C-0.08021762 174.88071518 -0.08021762 174.88071518 -0.09765625 167.91601562 C-0.10953047 163.19632368 -0.12345069 158.47671062 -0.15087891 153.75708008 C-0.17289268 149.94449574 -0.18462752 146.13199618 -0.18975449 142.3193531 C-0.19339982 140.87758108 -0.20051493 139.43581276 -0.21146011 137.99407768 C-0.35082166 118.84433568 1.15173017 100.38155791 14.99609375 85.9140625 C27.66780773 73.76186621 42.72214266 72.71342872 59.5234375 72.7265625 C60.8819777 72.71797714 62.24050958 72.70796935 63.59902954 72.69662476 C69.30507793 72.65087884 75.0110588 72.62571905 80.71728516 72.61914062 C84.23267513 72.61411558 87.74751211 72.5898414 91.26271439 72.55381393 C93.23347002 72.53935572 95.20434684 72.54662901 97.17514038 72.55435181 C105.90290134 72.51445314 105.90290134 72.51445314 113 68 C116.40370794 63.2327271 116.20625123 57.90190562 115.6171875 52.296875 C114.90599656 49.6501644 113.68486843 48.13113088 112 46 C112 45.34 112 44.68 112 44 C107.04111344 41.37383406 102.07440009 41.69316584 96.61010742 41.68115234 C95.56574524 41.67110672 94.52138306 41.6610611 93.44537354 41.65071106 C89.99874412 41.61985866 86.55219247 41.60283797 83.10546875 41.5859375 C80.71364166 41.56722754 78.32182119 41.54765425 75.93000793 41.5272522 C69.63855892 41.47590703 63.34708851 41.43629391 57.05554199 41.39910889 C50.63397923 41.35908431 44.2125057 41.30798488 37.79101562 41.2578125 C25.19406684 41.16102484 12.59708129 41.07765259 0 41 C0 27.47 0 13.94 0 0 Z " fill="#FDFDFD" transform="translate(1234,575)"/>
<path d="M0 0 C1.75739502 -0.00043808 1.75739502 -0.00043808 3.55029297 -0.00088501 C7.40274597 0.00050253 11.25500287 0.01603688 15.10742188 0.03173828 C17.78642097 0.03547046 20.46540937 0.03841491 23.14440918 0.04031372 C29.4623848 0.04651239 35.78029062 0.0629012 42.09823561 0.0830127 C49.29537228 0.10542212 56.49251241 0.11637777 63.68967533 0.12640357 C78.48521466 0.14726899 93.28067916 0.18392491 108.07617188 0.22705078 C108.07617188 13.75705078 108.07617188 27.28705078 108.07617188 41.22705078 C103.26128174 41.23321411 103.26128174 41.23321411 98.34912109 41.23950195 C87.74389828 41.25669877 77.13891667 41.3011995 66.53384209 41.35914135 C60.10389414 41.39343294 53.67418435 41.41852479 47.24414062 41.42260742 C41.03882874 41.42688558 34.8340543 41.45530938 28.62891006 41.50048256 C26.2614772 41.51347282 23.89398008 41.51775988 21.52651596 41.51320457 C18.21028346 41.50830978 14.89562847 41.53434395 11.57958984 41.56762695 C10.60063248 41.55900131 9.62167511 41.55037567 8.61305237 41.54148865 C4.14470481 41.61667308 1.05189065 41.76493866 -2.49581909 44.6464386 C-7.22656101 49.67451306 -7.35989604 53.46707793 -7.24414062 60.23876953 C-6.77743575 64.59278449 -5.6173339 66.78534896 -2.92382812 70.22705078 C0.53428744 72.55864278 3.6337847 72.48359152 7.73388672 72.49829102 C8.39473267 72.50351776 9.05557861 72.50874451 9.7364502 72.51412964 C11.1692404 72.52435303 12.60206757 72.53014715 14.03489304 72.53201103 C16.31596652 72.53569109 18.59661146 72.55246834 20.87759399 72.57276917 C27.36248719 72.62798029 33.84744622 72.6586297 40.33251953 72.68334961 C44.30546518 72.69940239 48.27811406 72.72981532 52.25090408 72.76811409 C53.75206934 72.77962491 55.25328815 72.7856932 56.75449753 72.78579521 C74.22416359 72.78741084 88.54497261 75.27589315 101.65039062 87.58642578 C115.41494132 102.57005907 117.93463851 121.07426165 117.25097656 140.56201172 C116.29595132 155.1221451 110.10660672 170.42701669 99.07617188 180.22705078 C88.30805668 188.52071795 77.1878463 191.86095329 63.69824219 191.68115234 C61.93997101 191.6820285 61.93997101 191.6820285 60.1461792 191.68292236 C56.31523852 191.68016078 52.48509973 191.64915902 48.65429688 191.61767578 C45.98100469 191.61020652 43.30775552 191.60431981 40.63446045 191.6005249 C34.34484888 191.58815895 28.05551988 191.55542533 21.76603198 191.51512694 C14.59785281 191.47020871 7.42965918 191.44837214 0.261374 191.4283452 C-14.46719022 191.38668576 -29.19545199 191.31341474 -43.92382812 191.22705078 C-43.92382812 177.69705078 -43.92382812 164.16705078 -43.92382812 150.22705078 C-40.74419434 150.21770508 -37.56456055 150.20835937 -34.28857422 150.19873047 C-23.78314815 150.16496355 -13.27791859 150.10941606 -2.77264977 150.04314804 C3.59672705 150.0036388 9.96596489 149.97146703 16.33544922 149.95605469 C22.48235535 149.94091112 28.6288795 149.90650568 34.77561569 149.85874176 C37.12071793 149.84390437 39.46587469 149.83600842 41.81102371 149.83516693 C45.09594704 149.83280273 48.37981008 149.8057653 51.66455078 149.77294922 C52.63415741 149.77797958 53.60376404 149.78300995 54.60275269 149.78819275 C60.24134972 149.70104185 63.65908804 149.09044836 68.07617188 145.22705078 C71.56267541 139.53242834 71.94303264 133.80388573 71.07617188 127.22705078 C69.575261 122.68017371 68.0925168 119.90461406 64.07617188 117.22705078 C61.16255202 116.9109178 61.16255202 116.9109178 57.80737305 116.93994141 C56.51139694 116.9265271 55.21542084 116.91311279 53.88017273 116.89929199 C53.18670935 116.89672897 52.49324596 116.89416595 51.77876854 116.89152527 C49.59438651 116.88320651 47.41041672 116.86266541 45.22615051 116.83898926 C40.57205291 116.79075617 35.91791252 116.75793485 31.26367188 116.72705078 C25.90359835 116.69115681 20.54372028 116.64866617 15.18383217 116.59111023 C13.05605342 116.57137502 10.92843299 116.56278472 8.80058289 116.55480957 C-7.51839194 116.42855856 -23.83584793 114.9768733 -36.27539062 103.13720703 C-42.98668396 95.36037661 -48.19080947 87.20785372 -50.92382812 77.22705078 C-51.14683594 76.48841797 -51.36984375 75.74978516 -51.59960938 74.98876953 C-56.04526055 57.47834756 -53.04812317 37.76541818 -44.02929688 22.26611328 C-36.67629137 11.65268418 -27.00666275 3.72307869 -14.3394165 0.6481514 C-9.5896055 -0.17986564 -4.80766948 -0.03161892 0 0 Z " fill="#FDFDFD" transform="translate(1809.923828125,574.77294921875)"/>
<path d="M0 0 C0.99132935 -0.00137466 1.98265869 -0.00274933 3.00402832 -0.00416565 C4.08008835 -0.00057037 5.15614838 0.0030249 6.26481628 0.00672913 C7.40671417 0.0065831 8.54861206 0.00643707 9.72511292 0.00628662 C13.49642339 0.00698283 17.26768437 0.01476167 21.03898621 0.02259827 C23.65500868 0.02446348 26.2710315 0.0258869 28.88705444 0.02688599 C35.06698274 0.02999096 41.24689329 0.0381931 47.42681378 0.04823548 C54.46427825 0.05942251 61.50174358 0.06491359 68.53921473 0.06993091 C83.01180525 0.08037642 97.48437658 0.09871153 111.95695496 0.12025452 C111.95695496 13.65025452 111.95695496 27.18025452 111.95695496 41.12025452 C108.84314392 41.13483704 105.72933289 41.14941956 102.52116394 41.16444397 C92.22730673 41.2148055 81.93360054 41.28140353 71.63989162 41.35596943 C65.39948254 41.40067597 59.15913878 41.43993173 52.91862488 41.46669006 C46.8949557 41.49271982 40.87153789 41.53312056 34.84802437 41.58344078 C32.55119519 41.60011158 30.25432252 41.61162452 27.95744133 41.61786842 C24.73752941 41.62750688 21.51826091 41.65556435 18.29850769 41.68788147 C17.35119781 41.68644638 16.40388794 41.68501129 15.4278717 41.68353271 C9.85041338 41.76257806 5.89844104 42.47677754 0.95695496 45.12025452 C-2.42516719 48.79057755 -3.30416396 53.37272707 -3.48054504 58.24525452 C-3.29079275 62.50486641 -2.48770538 65.54057331 -0.04304504 69.12025452 C4.26074967 73.02056848 8.04220345 73.24613509 13.7006073 73.26210022 C14.38242065 73.26557465 15.06423401 73.26904907 15.76670837 73.27262878 C17.24809836 73.27997907 18.7294993 73.28532833 20.21090317 73.28891945 C22.56714919 73.29610979 24.92318993 73.31180021 27.27937317 73.33026123 C33.97932427 73.38257515 40.6791678 73.43058237 47.37931824 73.44618225 C51.4808708 73.45635633 55.5819126 73.48592455 59.68326187 73.52750206 C61.23548616 73.539694 62.78778303 73.54495527 64.34005356 73.54270363 C78.92663695 73.52676801 93.06960875 75.83705707 104.14054871 86.15541077 C119.32865596 102.43453517 121.77090092 120.68686954 121.13615417 142.08509827 C120.22744599 157.4761884 113.0242934 170.64219199 101.95695496 181.12025452 C90.95454277 190.23990098 78.58300895 192.28108119 64.71916199 192.23377991 C63.59662521 192.23392593 62.47408844 192.23407196 61.3175354 192.23422241 C57.61659292 192.23352717 53.91570112 192.22575288 50.21476746 192.21791077 C47.64501472 192.21604521 45.07526164 192.21462196 42.50550842 192.21362305 C36.43894349 192.21019833 30.37239938 192.20232119 24.30584228 192.19227356 C17.39652636 192.18107956 10.48720956 192.1755937 3.57788682 192.17057812 C-10.62910178 192.16013766 -24.83606906 192.14180536 -39.04304504 192.12025452 C-39.04304504 178.59025452 -39.04304504 165.06025452 -39.04304504 151.12025452 C-34.45535217 151.09052551 -34.45535217 151.09052551 -29.77497864 151.06019592 C-19.66873584 150.993283 -9.56259594 150.91564343 0.5435276 150.83272743 C6.67073427 150.78278606 12.79792387 150.73645562 18.92521667 150.69837952 C24.83860879 150.66149974 30.75185743 150.61513208 36.6651268 150.56219101 C38.92092242 150.54366145 41.17674878 150.52854819 43.43259048 150.51691055 C46.59271683 150.50002378 49.75251562 150.4709822 52.91252136 150.43910217 C53.84472504 150.43694199 54.77692871 150.4347818 55.73738098 150.43255615 C61.52910817 150.35793819 66.52111239 150.08246103 71.20695496 146.30775452 C75.97805154 140.34388379 75.68437699 133.42141644 74.95695496 126.12025452 C74.00302283 123.04188978 73.06204268 121.68049634 70.95695496 119.12025452 C66.96441793 117.03015226 63.52675157 116.86473598 59.06217957 116.84901428 C58.38822144 116.84378754 57.71426331 116.83856079 57.0198822 116.83317566 C55.56200411 116.82296839 54.10408992 116.81716098 52.64617729 116.81529427 C50.32777075 116.81161067 48.00978448 116.79482618 45.69146729 116.77453613 C39.10173932 116.71934233 32.51194828 116.68860419 25.92204285 116.66395569 C21.88311625 116.647943 17.84448427 116.61757592 13.80571175 116.57919121 C12.27777331 116.56765279 10.74978185 116.56161185 9.22179985 116.56151009 C-6.99947251 116.56003908 -20.57674056 113.96834818 -32.77351379 102.60462952 C-46.21224211 87.89373243 -49.79790668 70.66719805 -49.04304504 51.12025452 C-47.99134213 38.74020877 -43.47141158 28.01836147 -36.04304504 18.12025452 C-35.60476379 17.5053717 -35.16648254 16.89048889 -34.71492004 16.25697327 C-26.64686834 5.80096374 -13.05585428 -0.01402347 0 0 Z " fill="#FDFDFD" transform="translate(1376.0430450439453,272.87974548339844)"/>
<path d="M0 0 C11.04561172 9.51548369 14.59822458 29.39250827 19.0546875 42.6796875 C19.80694737 44.9105979 20.55955773 47.14139013 21.3125 49.37207031 C22.8486323 53.92729859 24.38078014 58.48383918 25.90966797 63.04150391 C27.61241414 68.11718759 29.32321467 73.19008584 31.03816223 78.26165771 C39.91695879 104.53591306 48.35305516 130.94137354 56.6328125 157.41015625 C56.94152283 158.39676743 57.25023315 159.3833786 57.56829834 160.39988708 C58.14544289 162.2497183 58.72016999 164.10030603 59.29211426 165.95175171 C59.85435223 167.76808648 60.42391263 169.58216699 60.99987793 171.39419556 C61.27545532 172.27642792 61.55103271 173.15866028 61.83496094 174.06762695 C62.0819574 174.84821976 62.32895386 175.62881256 62.58343506 176.43305969 C63.1171875 178.6171875 63.1171875 178.6171875 63.1171875 182.6171875 C47.6071875 182.6171875 32.0971875 182.6171875 16.1171875 182.6171875 C13.18585938 173.57763672 13.18585938 173.57763672 10.1953125 164.35546875 C2.24552188 139.90290221 -5.87906081 115.50946313 -14.02508545 91.1217041 C-15.90459649 85.49363054 -17.78228754 79.86494983 -19.66015625 74.23632812 C-22.67068424 65.21339822 -25.68225252 56.19081643 -28.69526672 47.16871643 C-30.09233267 42.98527841 -31.48858613 38.80157304 -32.8828125 34.6171875 C-34.5328125 34.2871875 -36.1828125 33.9571875 -37.8828125 33.6171875 C-38.13386623 34.58295999 -38.13386623 34.58295999 -38.38999176 35.56824303 C-40.36385704 42.99854378 -42.67874129 50.27748945 -45.12304688 57.56494141 C-45.53806961 58.81030167 -45.95309235 60.05566193 -46.38069153 61.33876038 C-47.50816088 64.72173729 -48.63930137 68.10347602 -49.77115059 71.48498964 C-50.96106152 75.04211273 -52.14751276 78.60038948 -53.33435059 82.15853882 C-55.58072149 88.89145761 -57.83014451 95.62335246 -60.08069563 102.35487497 C-62.63238629 109.98761008 -65.18068332 117.62147671 -67.72868252 125.25544477 C-72.08782929 138.31554232 -76.44945587 151.37480912 -80.81404114 164.43309021 C-81.17563828 165.5149913 -81.53723541 166.5968924 -81.90979004 167.71157837 C-82.37544247 169.1046392 -82.37544247 169.1046392 -82.85050201 170.52584267 C-84.19623149 174.55574833 -85.53926765 178.58655296 -86.8828125 182.6171875 C-102.3928125 182.6171875 -117.9028125 182.6171875 -133.8828125 182.6171875 C-132.55985169 176.66386384 -131.17123095 170.93900349 -129.36328125 165.14453125 C-129.11287582 164.33352463 -128.8624704 163.52251801 -128.60447693 162.68693542 C-127.76456848 159.97466391 -126.91807033 157.26451528 -126.0703125 154.5546875 C-125.62338043 153.12150177 -125.62338043 153.12150177 -125.16741943 151.65936279 C-113.58341678 114.55798732 -101.35657319 77.64471917 -88.90447998 40.82635498 C-88.23357524 38.84209781 -87.56429286 36.8572912 -86.89678955 34.87188721 C-75.85508887 2.07634594 -75.85508887 2.07634594 -63.2578125 -4.6953125 C-43.21155329 -13.81176495 -18.10501333 -13.29704298 0 0 Z " fill="#FDFDFD" transform="translate(1693.8828125,282.3828125)"/>
<path d="M0 0 C10.59055177 9.12346235 14.07478338 27.82626793 18.3671875 40.6171875 C19.0634896 42.68011852 19.76011228 44.74294136 20.45703125 46.80566406 C22.30693765 52.28727508 24.1485214 57.77165029 25.98852539 63.2565918 C27.10870438 66.59192898 28.23244149 69.92604512 29.35742188 73.25976562 C39.26528222 102.62691292 48.85098013 132.08009444 58.0546875 161.67578125 C58.47838623 163.03759773 58.47838623 163.03759773 58.91064453 164.42692566 C59.65250771 166.82179112 60.38630208 169.21895323 61.1171875 171.6171875 C61.43067139 172.62146286 61.43067139 172.62146286 61.75048828 173.64602661 C62.7200543 176.84689868 63.1171875 179.21787173 63.1171875 182.6171875 C47.9371875 182.6171875 32.7571875 182.6171875 17.1171875 182.6171875 C14.46688431 175.99142952 11.9664862 169.44856092 9.73242188 162.68994141 C9.26302689 161.28219452 9.26302689 161.28219452 8.78414917 159.8460083 C7.75689545 156.76286249 6.73390126 153.67832156 5.7109375 150.59375 C4.98337918 148.40733145 4.25554991 146.22100305 3.52746582 144.03475952 C1.6092813 138.27258916 -0.30531205 132.50923192 -2.21911621 126.74560547 C-4.12315916 121.01330373 -6.03042448 115.28207465 -7.9375 109.55078125 C-10.88306593 100.69745664 -13.82691247 91.84356238 -16.76953125 82.98925781 C-20.49936154 71.76692966 -24.23583668 60.54682569 -27.9765625 49.328125 C-28.23405777 48.55587208 -28.49155304 47.78361916 -28.7568512 46.98796463 C-30.13189523 42.86428004 -31.50720911 38.74068554 -32.8828125 34.6171875 C-34.5328125 34.9471875 -36.1828125 35.2771875 -37.8828125 35.6171875 C-42.37131383 49.05897739 -46.85791534 62.50140021 -51.34251785 75.94449139 C-53.4264213 82.19105054 -55.51086415 88.43742857 -57.59667969 94.68334961 C-60.0114538 101.91463918 -62.42454257 109.14648913 -64.8359375 116.37890625 C-65.22859299 117.55651394 -65.62124847 118.73412163 -66.02580261 119.9474144 C-71.59419252 136.65584069 -77.09930167 153.38327425 -82.48272705 170.15226746 C-82.71037498 170.85982618 -82.93802292 171.56738491 -83.17256927 172.29638481 C-83.771643 174.15953393 -84.36855085 176.02337908 -84.965271 177.88728333 C-85.8828125 180.6171875 -85.8828125 180.6171875 -86.8828125 182.6171875 C-102.3928125 182.6171875 -117.9028125 182.6171875 -133.8828125 182.6171875 C-129.28565423 164.22855441 -129.28565423 164.22855441 -126.3359375 155.18359375 C-126.00792145 154.16341156 -125.6799054 153.14322937 -125.34194946 152.09213257 C-124.27746124 148.7862718 -123.20539836 145.48292897 -122.1328125 142.1796875 C-121.3748321 139.83352151 -120.61718844 137.48724672 -119.85986328 135.14086914 C-117.91741288 129.12829257 -115.96780656 123.11806262 -114.01599121 117.10852051 C-112.93090458 113.76535959 -111.84823508 110.42142796 -110.76660156 107.07714844 C-103.88822801 85.81463248 -96.93752549 64.57582334 -89.78253174 43.40457153 C-89.15441593 41.54422917 -88.52846214 39.68315504 -87.90496826 37.82125854 C-84.94295811 28.98847381 -81.8759969 20.2332989 -78.2109375 11.6640625 C-77.93889999 11.01666611 -77.66686249 10.36926971 -77.38658142 9.70225525 C-73.74867896 1.46560522 -68.02290959 -2.63909467 -60.0078125 -6.2578125 C-40.51684106 -13.54851592 -17.10470187 -12.5623744 0 0 Z " fill="#FDFDFD" transform="translate(2438.8828125,282.3828125)"/>
<path d="M0 0 C9.22258452 6.44117014 11.90532424 16.05105635 15.5 26.3125 C15.93086914 27.53251709 16.36173828 28.75253418 16.80566406 30.00952148 C18.21345341 34.00298613 19.60724874 38.00127124 21 42 C21.46939416 43.34440344 21.9387952 44.68880449 22.40820312 46.03320312 C33.89387193 78.97465507 44.57009872 112.18169182 55.10171509 145.43856812 C55.86098036 147.83477274 56.6218384 150.23047332 57.3843689 152.62564087 C58.45435538 155.98963163 59.51719758 159.35579909 60.578125 162.72265625 C60.89519913 163.71569763 61.21227325 164.70873901 61.53895569 165.73187256 C61.98228493 167.14668915 61.98228493 167.14668915 62.43457031 168.59008789 C62.6899054 169.39748917 62.94524048 170.20489044 63.20831299 171.03675842 C64.34922288 175.30712232 65.13313822 179.66569108 66 184 C50.49 184 34.98 184 19 184 C11.07628189 160.26895448 11.07628189 160.26895448 7.59765625 149.84179688 C5.26017195 142.83523159 2.92240934 135.82876043 0.58251953 128.82299805 C-1.6784904 122.05314906 -3.93739911 115.28260108 -6.1953125 108.51171875 C-6.5664341 107.3993774 -6.93755569 106.28703606 -7.3199234 105.1409874 C-11.31555735 93.16010736 -15.28392637 81.17140652 -19.17089844 69.15478516 C-19.49829199 68.14353608 -19.82568554 67.13228701 -20.16300011 66.09039402 C-21.7010705 61.33624709 -23.23323462 56.58031915 -24.75588989 51.82121277 C-25.29401944 50.15136258 -25.83225162 48.48154546 -26.37060547 46.81176758 C-26.6097102 46.05728899 -26.84881493 45.3028104 -27.09516525 44.52546883 C-28.12862811 41.33226768 -29.12459201 38.81311198 -31 36 C-32.96215289 36.22485776 -32.96215289 36.22485776 -35 37 C-36.30632309 39.85970164 -37.31186289 42.53848504 -38.26123047 45.51904297 C-38.56119431 46.41572189 -38.86115814 47.31240082 -39.17021179 48.23625183 C-40.16834818 51.23324389 -41.14267286 54.23743923 -42.1171875 57.2421875 C-42.81638971 59.35781724 -43.51702803 61.47297285 -44.21902466 63.587677 C-46.07941632 69.20533083 -47.91973636 74.82936947 -49.75616455 80.45489502 C-51.57014984 85.99996433 -53.40310921 91.5387441 -55.234375 97.078125 C-60.90885899 114.26290451 -66.52963453 131.46511579 -72.12207031 148.67675781 C-72.44850336 149.68104639 -72.77493641 150.68533497 -73.11126137 151.72005653 C-74.64956477 156.45356997 -76.18582402 161.18772566 -77.71774292 165.92330933 C-78.25987632 167.59487927 -78.80203965 169.2664395 -79.34423828 170.93798828 C-79.58572727 171.68711613 -79.82721626 172.43624397 -80.0760231 173.20807266 C-81.26682193 176.87389458 -82.56620996 180.4155249 -84 184 C-99.51 184 -115.02 184 -131 184 C-126.40225907 165.60903629 -126.40225907 165.60903629 -123.5234375 156.77734375 C-123.20079926 155.77329498 -122.87816101 154.76924622 -122.54574585 153.73477173 C-121.4941166 150.46728194 -120.43483108 147.20233778 -119.375 143.9375 C-118.62372808 141.61134212 -117.87275787 139.28508677 -117.12207031 136.95874023 C-115.15334025 130.86459611 -113.1767062 124.77304884 -111.19689941 118.68249512 C-110.01522266 115.04683549 -108.83511627 111.41066919 -107.65527344 107.77441406 C-100.40087343 85.42853818 -93.12074466 63.08942641 -85.56652832 40.84274292 C-85.03515895 39.27749112 -84.5053711 37.71170124 -83.97741699 36.14529419 C-72.95982822 3.51325697 -72.95982822 3.51325697 -58 -4 C-40.19445316 -11.2572371 -16.14747098 -10.93059574 0 0 Z " fill="#FDFDFD" transform="translate(853,582)"/>
<path d="M0 0 C0.61488281 0.3609375 1.22976562 0.721875 1.86328125 1.09375 C6.20498234 4.09732149 8.18229732 8.03151254 10.2109375 12.78125 C10.6601355 13.82307182 10.6601355 13.82307182 11.1184082 14.88594055 C15.28659701 24.7873396 18.59829504 35.00458983 22 45.1875 C22.74827835 47.41154556 23.49706725 49.6354194 24.24633789 51.85913086 C25.77294287 56.3945368 27.2948775 60.93147056 28.81298828 65.46972656 C30.49681218 70.5022789 32.1907134 75.53131944 33.89076233 80.55841064 C41.2155724 102.22584935 48.28866199 123.97138993 55.20439529 145.7725029 C55.806704 147.66924768 56.41101755 149.56535545 57.01535034 151.4614563 C58.14754349 155.01807181 59.2722162 158.57697548 60.39453125 162.13671875 C60.73028168 163.18896637 61.0660321 164.24121399 61.41195679 165.3253479 C61.7243631 166.32230682 62.03676941 167.31926575 62.35864258 168.34643555 C62.62872635 169.20109909 62.89881012 170.05576263 63.17707825 170.93632507 C64.33277089 175.23888065 65.12628974 179.63144871 66 184 C50.49 184 34.98 184 19 184 C5.09056091 142.27168274 -8.81887817 100.54336548 -22.72831726 58.81504822 C-23.28428117 57.16842603 -23.28428117 57.16842603 -23.85147667 55.48853874 C-24.68864377 52.9457172 -25.48717353 50.40501103 -26.2570591 47.84210396 C-26.47082217 47.15118583 -26.68458524 46.46026771 -26.90482599 45.74841267 C-27.5066554 43.79996024 -28.09256123 41.8466104 -28.67757893 39.89304447 C-29.67459119 36.85304951 -29.67459119 36.85304951 -32.15388012 36.08132839 C-32.76309968 36.05449002 -33.37231924 36.02765165 -34 36 C-36.9809135 43.19670676 -39.58305311 50.47185366 -42.03076172 57.86523438 C-42.41185089 59.00820984 -42.79294006 60.1511853 -43.18557739 61.32879639 C-44.22094126 64.43603474 -45.25365098 67.5441393 -46.28515005 70.65266228 C-47.37452945 73.93343514 -48.46738294 77.21305047 -49.55984497 80.49279785 C-51.63035133 86.71051417 -53.69780396 92.9292413 -55.7641288 99.14834833 C-58.09383807 106.15970058 -60.42687712 113.16994318 -62.76024222 120.18007946 C-66.76261302 132.20456681 -70.76276132 144.22979063 -74.75946045 156.25616455 C-77.83400223 165.5060009 -80.91758927 174.7527678 -84 184 C-99.51 184 -115.02 184 -131 184 C-129.6932264 178.11951878 -128.33342243 172.46203616 -126.55078125 166.73828125 C-126.30570831 165.94327209 -126.06063538 165.14826294 -125.80813599 164.3291626 C-124.98120855 161.65537644 -124.14751253 158.98377169 -123.3125 156.3125 C-123.01876495 155.36970184 -122.72502991 154.42690369 -122.4223938 153.45553589 C-110.30968597 114.63574934 -97.51214118 76.00589783 -84.4375 37.5 C-84.06877274 36.40632614 -84.06877274 36.40632614 -83.69259644 35.29055786 C-72.9567702 3.51172114 -72.9567702 3.51172114 -58 -4 C-40.09307932 -11.29855535 -16.27449141 -10.82867513 0 0 Z " fill="#FDFDFD" transform="translate(2346,582)"/>
<path d="M0 0 C1.53793968 -0.00043808 1.53793968 -0.00043808 3.10694885 -0.00088501 C6.47242908 0.00050059 9.83768378 0.01602555 13.203125 0.03173828 C15.54581583 0.03547114 17.88850822 0.03831683 20.23120117 0.04031372 C26.37966262 0.04792862 32.52802871 0.06755872 38.67645264 0.08972168 C44.95746572 0.1102263 51.2384943 0.1193253 57.51953125 0.12939453 C69.83077768 0.15080664 82.14192847 0.18597133 94.453125 0.22705078 C94.453125 13.75705078 94.453125 27.28705078 94.453125 41.22705078 C87.91628906 41.25283203 81.37945313 41.27861328 74.64453125 41.30517578 C70.49279981 41.3303549 66.34114045 41.35669606 62.18945312 41.38720703 C55.60587326 41.43547994 49.02246033 41.47954806 42.4387207 41.49804688 C37.12819097 41.51323818 31.81809917 41.54772806 26.50776482 41.5953598 C24.48612216 41.61014803 22.46441698 41.61809032 20.44272041 41.61893463 C17.60139912 41.62131373 14.76127887 41.64846916 11.92016602 41.68115234 C11.09225555 41.67612198 10.26434509 41.67109161 9.41134644 41.66590881 C2.55760232 41.78715227 -3.38487502 43.69523961 -8.78125 48.01611328 C-22.96127638 65.19294936 -24.06822753 85.80925974 -22.546875 107.22705078 C-21.06633055 120.49797268 -15.29912326 136.47739231 -4.6015625 145.06298828 C0.992264 148.23211432 6.2331622 148.52960707 12.48779297 148.54589844 C13.37624405 148.55594406 14.26469513 148.56598969 15.18006897 148.57633972 C18.10181054 148.60710486 21.02346075 148.62418833 23.9453125 148.64111328 C25.97698753 148.65983029 28.00865484 148.6794041 30.04031372 148.69979858 C35.3765812 148.75106944 40.71287386 148.79072223 46.04925537 148.82794189 C52.45794086 148.8750637 58.86650185 148.93663995 65.27508545 148.99578857 C75.00104824 149.08393929 84.72698791 149.15374788 94.453125 149.22705078 C94.453125 163.08705078 94.453125 176.94705078 94.453125 191.22705078 C81.10046358 191.29499173 67.74791812 191.34996215 54.39512253 191.3824873 C48.19401343 191.39810249 41.99302935 191.41926487 35.79199219 191.45336914 C29.8008426 191.4861106 23.80981282 191.50393494 17.81858063 191.51168251 C15.53978847 191.51719954 13.26100242 191.52797258 10.98226166 191.54424095 C-9.14372177 191.68213063 -25.95952701 190.25973207 -41.2421875 175.56298828 C-42.00273437 174.79212891 -42.76328125 174.02126953 -43.546875 173.22705078 C-44.24554687 172.53869141 -44.94421875 171.85033203 -45.6640625 171.14111328 C-67.8633833 147.90524832 -70.30943452 116.03624926 -69.78387451 85.67362976 C-69.12222711 59.76335668 -58.42502522 32.96364245 -39.91796875 14.62158203 C-28.27166532 4.50099521 -15.236991 -0.11495788 0 0 Z " fill="#FDFDFD" transform="translate(2537.546875,574.77294921875)"/>
<path d="M0 0 C15.56918648 -0.09052662 31.13819897 -0.16411304 46.70757675 -0.20724869 C53.93779722 -0.22781562 61.16784174 -0.25582278 68.39794922 -0.30175781 C74.7046176 -0.34180663 81.01115846 -0.3674754 87.31795049 -0.37635398 C90.65304963 -0.38153861 93.98749713 -0.39574348 97.32253265 -0.42292023 C101.05866219 -0.45214252 104.7940472 -0.45594799 108.53027344 -0.45410156 C109.61856949 -0.46848267 110.70686554 -0.48286377 111.82814026 -0.49768066 C125.65617125 -0.42418852 135.87166488 4.65109427 145.99609375 13.8046875 C157.93841906 26.19917212 161.5144343 43.15925134 161.42431641 59.81103516 C160.93073844 76.2779888 155.29122271 90.89178715 144 103 C130.99655391 114.76622501 115.97385446 116.10833605 99.1484375 116.17578125 C96.89321964 116.19896071 94.63801125 116.22307725 92.3828125 116.24804688 C88.86972488 116.2832171 85.35699282 116.31256847 81.84375 116.32592773 C78.42405805 116.34143276 75.00536411 116.38162772 71.5859375 116.42578125 C70.02158463 116.42291862 70.02158463 116.42291862 68.42562866 116.41999817 C61.03009112 116.54341666 55.9335298 117.89336154 50.01171875 122.5703125 C43.01198175 130.78829281 42.56156445 140.16378312 42.70703125 150.5703125 C42.71339851 152.31367386 42.71339851 152.31367386 42.71989441 154.09225464 C42.73656074 157.77008153 42.77419106 161.44734136 42.8125 165.125 C42.82756238 167.63280453 42.84124805 170.14061774 42.85351562 172.6484375 C42.88386075 178.76601424 42.94260745 184.88237943 43 191 C28.81 191 14.62 191 0 191 C-0.08021762 174.59104045 -0.08021762 174.59104045 -0.09765625 167.51171875 C-0.10953935 162.71072888 -0.12348451 157.90981642 -0.15087891 153.10888672 C-0.17286126 149.23146856 -0.18462118 145.3541336 -0.18975449 141.47665787 C-0.19340528 140.0089398 -0.20053183 138.54122547 -0.21146011 137.07354355 C-0.33576635 119.66155233 0.95521369 103.13517664 12 89 C12.47824219 88.38382813 12.95648437 87.76765625 13.44921875 87.1328125 C21.60210078 77.89151045 33.18508218 74.42244566 45 73 C49.85423944 72.72935412 54.69759703 72.69954259 59.55859375 72.69140625 C60.91953079 72.68027427 62.28045799 72.66787421 63.64137268 72.65428162 C69.35840274 72.59947576 75.07549156 72.56806051 80.79272461 72.54370117 C84.31452279 72.5278067 87.83597369 72.49759638 91.35759163 72.45893669 C93.33447411 72.44172508 95.31147949 72.44123241 97.28843689 72.4410553 C98.49061356 72.42771652 99.69279022 72.41437775 100.93139648 72.40063477 C101.98552231 72.39556412 103.03964813 72.39049347 104.12571716 72.38526917 C108.38079608 71.81491795 111.03916259 70.16673114 113.75 66.875 C116.43118332 60.70827836 116.55083222 55.21768922 114.27734375 48.921875 C111.82002992 45.22463217 109.14294164 42.44576507 104.74211502 41.53032494 C101.98315909 41.34510962 99.26173239 41.3162123 96.49658203 41.34057617 C94.92981972 41.32485062 94.92981972 41.32485062 93.33140564 41.30880737 C89.88990493 41.28007937 86.44941154 41.28634668 83.0078125 41.29296875 C80.61740865 41.27985245 78.22701589 41.26454844 75.8366394 41.24714661 C69.55332601 41.20727644 63.27030242 41.19710477 56.98687744 41.19311523 C50.57189125 41.18378774 44.15707561 41.14637648 37.7421875 41.11132812 C25.16142618 41.04673125 12.58091696 41.01610428 0 41 C0 27.47 0 13.94 0 0 Z " fill="#FDFDFD" transform="translate(1999,575)"/>
<path d="M0 0 C61.05 0 122.1 0 185 0 C185 13.53 185 27.06 185 41 C161.57 41 138.14 41 114 41 C114.01160156 51.81652344 114.02320313 62.63304687 114.03515625 73.77734375 C114.04026266 80.60872419 114.04511765 87.44010327 114.04882812 94.27148438 C114.05477143 105.12687653 114.06177396 115.98226094 114.07543945 126.83764648 C114.08538538 134.74208712 114.09185321 142.64652151 114.09408849 150.55096823 C114.09539576 154.73894719 114.09848259 158.92690827 114.10573006 163.11488152 C114.11248884 167.05215298 114.11461725 170.98939908 114.11310768 174.9266758 C114.11338407 176.37594617 114.11539004 177.82521735 114.11920547 179.27448273 C114.12414043 181.24470414 114.12239809 183.21493898 114.12025452 185.18516541 C114.12117631 186.29039519 114.1220981 187.39562498 114.12304783 188.53434658 C114 191 114 191 113 192 C99.14 192 85.28 192 71 192 C71 142.17 71 92.34 71 41 C47.57 41 24.14 41 0 41 C0 27.47 0 13.94 0 0 Z " fill="#FBFBFB" transform="translate(1094,273)"/>
<path d="M0 0 C14.52 0 29.04 0 44 0 C44.02578125 7.23808594 44.0515625 14.47617187 44.078125 21.93359375 C44.10332504 26.55016441 44.12968237 31.16667159 44.16015625 35.78320312 C44.20829679 43.09253077 44.25241415 50.40171127 44.27099609 57.71118164 C44.28626647 63.61175509 44.32089396 69.51194061 44.36830902 75.41234016 C44.3830165 77.65066191 44.39103482 79.88903908 44.39188385 82.12740898 C44.4080641 103.4177271 46.11162433 123.73059076 61.65625 139.87109375 C73.15453334 150.31536778 88.39661102 149.31173519 103.015625 149.4140625 C104.72484227 149.43281271 106.43405065 149.45238885 108.14324951 149.4727478 C112.60152912 149.52366865 117.0598386 149.56350633 121.51824951 149.60089111 C126.88919125 149.64829201 132.25998942 149.70971514 137.6308136 149.76873779 C145.75381648 149.85646064 153.87679872 149.9265743 162 150 C162 163.86 162 177.72 162 192 C141.38852854 192.08021762 141.38852854 192.08021762 132.51757812 192.09765625 C126.49418559 192.10955377 120.47085459 192.12353925 114.44750977 192.15087891 C109.58454278 192.17281037 104.7216419 192.18461087 99.85862923 192.18975449 C98.01494368 192.19341416 96.17126124 192.20055906 94.32760429 192.21146011 C70.01966344 192.34930579 46.01747051 189.76995127 27 173 C25.87464844 172.01580078 25.87464844 172.01580078 24.7265625 171.01171875 C7.94375411 155.34585494 0.68732349 130.94585444 -0.08912849 108.41352654 C-0.12215668 105.53811961 -0.12380658 102.66439667 -0.11352539 99.78881836 C-0.11367142 98.70485779 -0.11381744 97.62089722 -0.1139679 96.50408936 C-0.11327561 92.9493199 -0.10551543 89.39460396 -0.09765625 85.83984375 C-0.09578964 83.36405974 -0.09436688 80.88827536 -0.09336853 78.41249084 C-0.08956251 71.91719532 -0.07974866 65.42192238 -0.06866455 58.92663574 C-0.05840917 52.29028589 -0.05386208 45.65393381 -0.04882812 39.01757812 C-0.03812459 26.01170726 -0.02054339 13.00585905 0 0 Z " fill="#FDFDFD" transform="translate(2071,273)"/>
<path d="M0 0 C14.19 0 28.38 0 43 0 C43.04898437 6.6 43.09796875 13.2 43.1484375 20 C43.18387242 24.21095173 43.2198601 28.42188453 43.2578125 32.6328125 C43.31784305 39.29912432 43.37595823 45.96541001 43.421875 52.63183594 C43.45907239 58.01360148 43.50551984 63.39521866 43.55806351 68.77685547 C43.57642627 70.8178443 43.59159904 72.8588647 43.60334396 74.89990234 C43.74274907 98.31391646 44.57772319 121.7719546 61.4375 139.9375 C72.7614594 150.40965715 88.54749493 149.31279132 103.015625 149.4140625 C104.72484227 149.43281271 106.43405065 149.45238885 108.14324951 149.4727478 C112.60152912 149.52366865 117.0598386 149.56350633 121.51824951 149.60089111 C126.88919125 149.64829201 132.25998942 149.70971514 137.6308136 149.76873779 C145.75381648 149.85646064 153.87679872 149.9265743 162 150 C162 163.86 162 177.72 162 192 C141.38852854 192.08021762 141.38852854 192.08021762 132.51757812 192.09765625 C126.49418559 192.10955377 120.47085459 192.12353925 114.44750977 192.15087891 C109.58454278 192.17281037 104.7216419 192.18461087 99.85862923 192.18975449 C98.01494368 192.19341416 96.17126124 192.20055906 94.32760429 192.21146011 C80.44640373 192.29017775 66.70623609 191.9045138 53.3125 187.8125 C52.60536865 187.59819336 51.8982373 187.38388672 51.16967773 187.16308594 C39.96192063 183.57070952 31.28564228 177.24351189 23 169 C22.30132813 168.33613281 21.60265625 167.67226563 20.8828125 166.98828125 C12.38923521 158.3129348 7.58399884 146.86009123 4.125 135.375 C3.93397705 134.74400391 3.7429541 134.11300781 3.54614258 133.46289062 C-0.7028801 118.15484703 -0.26439399 102.65147115 -0.1953125 86.9140625 C-0.19157613 84.40058505 -0.18873211 81.88710614 -0.18673706 79.37362671 C-0.17992214 73.47021468 -0.16421455 67.56688054 -0.14403808 61.66350019 C-0.11932857 54.27047202 -0.1087135 46.87743401 -0.09765625 39.484375 C-0.07629289 26.32287089 -0.04115132 13.16145712 0 0 Z " fill="#FDFDFD" transform="translate(1829,273)"/>
<path d="M0 0 C1.41466553 0.00424484 1.41466553 0.00424484 2.85791016 0.00857544 C5.84290756 0.01968808 8.82759469 0.04477578 11.8125 0.0703125 C13.84765189 0.08035384 15.88280852 0.08947766 17.91796875 0.09765625 C22.88302554 0.11788876 27.84741922 0.15705417 32.8125 0.1953125 C32.8125 13.7253125 32.8125 27.2553125 32.8125 41.1953125 C18.4375 41.3828125 18.4375 41.3828125 13.96728516 41.40307617 C4.29074591 41.63110535 -3.42717033 43.17788615 -10.4375 50.1953125 C-22.97245389 66.67185246 -24.19929716 88.98538893 -21.87841797 108.83935547 C-19.81982532 122.17682736 -15.25732204 134.7873567 -5.1875 144.1953125 C-0.05649358 147.89441015 4.3088797 148.32020135 10.546875 148.51171875 C11.71444336 148.54982666 12.88201172 148.58793457 14.08496094 148.62719727 C15.56254883 148.67030029 17.04013672 148.71340332 18.5625 148.7578125 C23.265 148.9021875 27.9675 149.0465625 32.8125 149.1953125 C32.8125 163.0553125 32.8125 176.9153125 32.8125 191.1953125 C26.191875 191.2778125 19.57125 191.3603125 12.75 191.4453125 C10.69386475 191.48172852 8.63772949 191.51814453 6.51928711 191.55566406 C-11.9347849 191.74665355 -28.22693447 188.43024366 -42.19921875 175.296875 C-62.4715882 153.86949825 -69.41303356 126.67577819 -69.4375 97.8203125 C-69.43817474 97.10633301 -69.43884949 96.39235352 -69.43954468 95.65673828 C-69.42295375 84.59943051 -68.9394731 73.94859323 -66.1875 63.1953125 C-66.02121094 62.52725586 -65.85492187 61.85919922 -65.68359375 61.17089844 C-60.34361155 40.45374529 -49.44132788 20.19209276 -31.1875 8.1953125 C-20.88096735 2.54806443 -11.66509944 -0.13389992 0 0 Z " fill="#FDFDFD" transform="translate(1530.1875,574.8046875)"/>
<path d="M0 0 C5.88663437 -0.09250058 11.77068497 -0.17193257 17.6574707 -0.21972656 C19.65430305 -0.23967719 21.65107824 -0.26684772 23.64770508 -0.30175781 C42.527576 -0.62327828 58.17424307 1.66059886 72.65161133 15.06396484 C83.12854254 25.28609229 89.89181887 37.33639895 95 51 C95.37898438 52.0003125 95.75796875 53.000625 96.1484375 54.03125 C106.90786753 85.41966242 104.71334256 123.57741215 90.1875 153.375 C86.85749476 159.90711443 82.97786872 165.58763041 78 171 C77.28972656 171.79019531 76.57945313 172.58039063 75.84765625 173.39453125 C66.57895153 183.21707772 53.73424452 190.50933666 39.93348694 191.08641052 C37.39648006 191.11560135 34.86134755 191.11238475 32.32421875 191.09765625 C31.09330505 191.09614563 31.09330505 191.09614563 29.83752441 191.09460449 C26.78750195 191.08939319 23.7374995 191.07543197 20.6875 191.0625 C13.860625 191.041875 7.03375 191.02125 0 191 C0 177.14 0 163.28 0 149 C13.875 148.8125 13.875 148.8125 18.18701172 148.79223633 C27.06531765 148.57564687 34.48733868 147.40192448 41.03955078 141.01049805 C54.31085598 125.89606125 55.98257812 104.72577589 55.16845703 85.57519531 C54.25700956 71.6419374 50.1274182 57.04495516 40 47 C32.10023028 41.25575943 23.82724945 41.23034744 14.375 41.1875 C9.63125 41.125625 4.8875 41.06375 0 41 C0 27.47 0 13.94 0 0 Z " fill="#FDFDFD" transform="translate(1579,575)"/>
<path d="M0 0 C1.63821748 4.91465245 1.22644675 9.97861484 1.25 15.125 C1.270625 16.2284375 1.29125 17.331875 1.3125 18.46875 C1.35425627 27.25844442 0.10893352 34.43989368 -4.875 41.8125 C-5.49375 42.74578125 -6.1125 43.6790625 -6.75 44.640625 C-7.10320312 45.16591797 -7.45640625 45.69121094 -7.8203125 46.23242188 C-9.66507956 48.99651822 -11.46296412 51.79071115 -13.26806641 54.58081055 C-16.16867454 59.06040363 -19.08556492 63.52939574 -22 68 C-22.58942383 68.90476074 -23.17884766 69.80952148 -23.78613281 70.74169922 C-27.49602831 76.43426346 -31.21445838 82.12118136 -34.94039917 87.80325317 C-37.46883866 91.66000525 -39.992847 95.51961355 -42.51367188 99.38134766 C-45.76263888 104.3579491 -49.01816815 109.33021175 -52.27709961 114.30029297 C-53.58666491 116.2997258 -54.89413928 118.30052979 -56.19946289 120.30273438 C-58.049225 123.1391465 -59.90657112 125.97045331 -61.765625 128.80078125 C-62.320224 129.65493118 -62.874823 130.50908112 -63.44622803 131.38911438 C-66.31211741 135.73483894 -69.14980917 139.48788123 -73 143 C-73.02033686 137.9998446 -73.01717235 133.00013558 -73 128 C-72.99661621 126.7315625 -72.99323242 125.463125 -72.98974609 124.15625 C-72.61205838 88.0438442 -65.91767679 52.526616 -60 17 C-52.62138395 14.77863705 -45.24145014 12.56170177 -37.85980511 10.35042572 C-34.43232583 9.32352403 -31.00531965 8.29509731 -27.5793457 7.26318359 C-23.64148997 6.07716235 -19.70167342 4.89778001 -15.76171875 3.71875 C-14.53039719 3.34689575 -13.29907562 2.9750415 -12.03044128 2.59191895 C-10.31900688 2.08138977 -10.31900688 2.08138977 -8.57299805 1.56054688 C-7.567061 1.2585437 -6.56112396 0.95654053 -5.52470398 0.64538574 C-3 0 -3 0 0 0 Z " fill="#FDFDFD" transform="translate(625,704)"/>
<path d="M0 0 C6.41822756 0.67180605 12.35620884 2.46440547 18.515625 4.34375 C19.60840759 4.67290405 20.70119019 5.00205811 21.8270874 5.34118652 C25.30284343 6.38938603 28.77641187 7.44464134 32.25 8.5 C34.60142519 9.21009026 36.95298631 9.91973057 39.3046875 10.62890625 C43.59750046 11.92503819 47.88986369 13.22261009 52.18066406 14.52539062 C53.04113342 14.7866272 53.90160278 15.04786377 54.78814697 15.3170166 C56.53249606 15.85564257 58.26806914 16.42268971 60 17 C61.60321453 26.51135455 63.19213147 36.02495441 64.76248169 45.54179382 C65.52667324 50.16666909 66.30382688 54.78896968 67.09667969 59.40901184 C71.85384726 87.24008458 73.45075459 114.78622989 73 143 C69.27372253 139.62168715 66.80053709 135.83251388 64.1484375 131.61328125 C63.16860039 130.07702581 62.18775636 128.54141227 61.20605469 127.00634766 C60.68652222 126.19232483 60.16698975 125.378302 59.63171387 124.53961182 C56.80543444 120.14076912 53.92120328 115.78033279 51.0390625 111.41796875 C50.13374786 110.04597824 50.13374786 110.04597824 49.21014404 108.64627075 C47.34910456 105.82623406 45.48717444 103.00678734 43.625 100.1875 C35.84304042 88.40517155 28.07922815 76.61241792 20.39471436 64.76623535 C17.60946889 60.47299907 14.81415117 56.18721933 11.9921875 51.91796875 C11.46109375 51.11166016 10.93 50.30535156 10.3828125 49.47460938 C9.34243091 47.89651761 8.29789994 46.32115628 7.25 44.74804688 C-2.02661552 30.61390009 -2.17906558 16.53755126 0 0 Z " fill="#FDFDFD" transform="translate(392,704)"/>
</svg>
